<?xml version="1.0" encoding="utf-8"?>
<svg xmlns="http://www.w3.org/2000/svg" viewBox="1.678 0 2004.604 2301.69" xmlns:bx="https://boxy-svg.com">
  <defs>
    <style bx:fonts="Boldonse">@import url(https://fonts.googleapis.com/css2?family=Boldonse%3Aital%2Cwght%400%2C400&amp;display=swap);</style>
  </defs>
  <g transform="matrix(1, 0, 0, 1, -6.285846, -48.625992)">
    <g>
      <path d="M 1633.63 1423.67 C 1632.13 1407.34 1630.67 1391.63 1631.73 1379.85 C 1641.06 1276.09 1610.78 1182.24 1544.18 1109.08 C 1468.63 1025.97 1349.54 976.363 1225.61 976.363 C 1053.06 976.363 908.432 1066.7 838.712 1218.21 C 838.548 1218.62 838.342 1219.02 838.197 1219.45 C 822.176 1160.33 806.014 1119.41 793.073 1086.75 C 771.204 1031.14 759.464 1001.38 768.869 936.263 C 785.942 934.404 801.942 926.963 814.488 915.389 C 816.658 915.389 818.91 915.595 821.185 915.595 C 844.646 915.595 864.984 906.706 879.68 890.79 L 881.501 890.79 C 910.707 890.79 935.574 878.181 952.128 855.858 C 992.522 852.55 1020.42 828.161 1025.93 790.747 C 1033.38 740.314 1015.76 599.345 977.718 555.111 C 962.629 537.335 945.969 533.614 934.683 533.614 C 870.297 533.614 769.592 548.496 684.101 570.613 C 528.293 610.919 503.943 651.639 500.077 682.438 C 484.266 810.178 460.824 924.069 440.115 1024.53 C 410.762 1166.94 387.591 1279.39 398.794 1367.86 C 403.155 1402.37 411.858 1431.93 420.25 1460.46 C 430.751 1496.22 441.561 1533.01 445.219 1583.45 C 450.241 1653.73 525.976 1693.83 653.014 1693.83 C 702.809 1693.83 753.595 1687.42 795.265 1675.84 C 846.36 1700.44 1014.96 1773.82 1195.05 1773.82 C 1256.96 1773.82 1314.65 1764.94 1366.58 1747.56 C 1632.26 1658.27 1644.18 1538.6 1633.63 1423.67 M 439.824 1362.68 C 421.925 1221.31 503.22 993.721 541.128 687.605 C 547.556 635.93 783.235 581.567 912.876 575.78 C 907.606 580.122 903.824 585.702 903.327 591.49 C 918.872 584.462 942.082 582.189 953.471 605.546 C 954.072 601.617 954.321 598.105 954.321 594.797 C 960.272 606.579 965.709 622.494 970.297 640.477 C 976.065 666.521 979.29 693.394 979.352 720.056 C 979.394 738.66 983.444 805.01 952.79 796.536 C 933.898 791.162 933.423 773.8 928.027 755.816 C 919.718 727.704 905.084 695.458 906.863 665.488 C 899.649 694.839 908.225 729.979 911.41 759.537 C 913.227 776.694 925.135 823.199 904.05 829.607 C 892.394 833.121 878.875 825.06 869.221 818.859 C 865.542 816.584 862.794 799.636 861.449 794.882 C 853.141 765.944 838.258 732.458 840.16 701.867 C 832.884 729.566 839.973 762.638 842.288 790.954 C 843.714 808.316 852.542 846.35 832.822 855.031 C 810.499 866.812 807.067 838.496 802.933 823.612 C 795.265 796.123 782.802 765.944 783.132 737.007 C 775.341 772.144 784.495 813.486 786.003 849.452 C 786.811 867.432 749.294 883.555 735.302 872.188 C 713.372 854.618 709.671 813.279 707.191 786.613 C 713.764 795.709 723.188 807.284 735.155 806.044 C 724.988 794.467 720.667 774.626 713.866 760.57 C 707.624 748.995 694.953 721.296 680.05 720.883 C 682.344 725.845 694.91 759.95 692.968 763.464 C 686.912 774.832 681.023 786.2 674.283 796.949 C 668.557 806.044 651.94 834.983 638.525 826.3 C 624.035 816.792 614.942 774.832 614.942 774.832 C 614.942 774.832 615.478 827.333 634.205 839.322 C 651.94 850.897 672.154 832.708 683.893 819.685 C 686.23 844.696 692.968 873.841 708.038 893.064 C 663.763 1089.43 745.263 1087.58 800.204 1350.08 C 800.204 1350.08 836.418 1296.54 868.084 1227.71 C 937.184 1077.65 1081.33 1010.89 1220.26 1010.89 C 1358.04 1010.89 1505.59 1081.37 1559.19 1203.12 C 1576.91 1243.22 1581.32 1291.37 1576.52 1344.29 C 1568.69 1430.49 1653.81 1570.85 1336.3 1676.25 C 1084.35 1759.97 774.47 1599.56 774.47 1599.56 C 689.475 1627.47 490.713 1639.46 486.518 1580.55 C 479.593 1484.23 448.981 1435.03 439.824 1362.68" style="stroke-width: 1; fill: rgb(20, 82, 26);"/>
      <path d="M 1062.42 1599.56 C 1117.74 1619.84 1177.88 1625.41 1235.88 1618.6 C 1293.92 1611.57 1350.72 1592.54 1400.2 1560.71 C 1424.77 1544.6 1447.61 1525.16 1465.98 1502 C 1483.95 1478.65 1498.49 1451.78 1501.87 1423.25 C 1466.14 1466.87 1420.7 1491.05 1373.88 1510.06 C 1326.83 1528.66 1277.33 1540.25 1227.43 1546.25 C 1177.48 1552.03 1127.08 1552.03 1077.13 1544.38 C 1025.03 1536.31 974.804 1518.74 928.855 1492.91 C 957.047 1542.73 1007.48 1579.31 1062.42 1599.56" style="stroke-width: 1; fill: rgb(20, 82, 26);"/>
      <path d="M 883.028 633.862 C 891.792 577.022 834.827 595.83 832.842 620.015 C 848.387 612.988 871.64 610.712 883.028 633.862" style="stroke-width: 1; fill: rgb(20, 82, 26);"/>
      <path d="M 826.705 665.282 C 835.488 608.438 778.542 627.25 776.559 651.433 C 792.102 644.404 815.336 642.132 826.705 665.282" style="stroke-width: 1; fill: rgb(20, 82, 26);"/>
      <path d="M 761.655 698.146 C 770.439 641.304 713.496 659.906 711.51 684.296 C 727.074 677.062 750.268 674.997 761.655 698.146" style="stroke-width: 1; fill: rgb(20, 82, 26);"/>
    </g>
    <path d="M 1016.08 1173.49 m -866.863 0 a 866.863 866.863 0 1 0 1733.726 0 a 866.863 866.863 0 1 0 -1733.726 0 Z M 1016.08 1173.49 m -823.518 0 a 823.518 823.518 0 0 1 1647.036 0 a 823.518 823.518 0 0 1 -1647.036 0 Z" bx:shape="ring 1016.08 1173.49 823.518 823.518 866.863 866.863 1@c1d01530" style="stroke: rgb(0, 0, 0); fill: rgb(20, 82, 26);"/>
  </g>
  <text style="fill: rgb(20, 82, 26); font-family: Boldonse; font-size: 77px; letter-spacing: 12.6px; white-space: pre;" transform="matrix(1, 0, 0, 1, 4.844399, -50.84671)"><textPath href="#path-0">seedbuilders.org</textPath></text>
  <path style="fill: none; stroke: rgb(0, 0, 0); fill-opacity: 0;" d="M 533.448 2073.04 C 813.384 2224.987 1120.36 2245.294 1502.721 2072.784" id="path-0"/>
</svg>